solid CATIA STL
  facet normal  1.000000e+000  0.000000e+000  0.000000e+000
    outer loop
      vertex  1.500000e+002  2.295000e+002 -1.000000e+000
      vertex  1.500000e+002  2.075000e+002  0.000000e+000
      vertex  1.500000e+002  2.075000e+002 -1.000000e+000
    endloop
  endfacet
  facet normal  1.000000e+000  0.000000e+000  0.000000e+000
    outer loop
      vertex  1.500000e+002 -2.450564e+002  3.655635e+001
      vertex  1.500000e+002 -2.450564e+002  1.455635e+001
      vertex  1.500000e+002  2.450564e+002  1.455635e+001
    endloop
  endfacet
  facet normal  1.000000e+000  0.000000e+000  -0.000000e+000
    outer loop
      vertex  1.500000e+002 -2.450564e+002  3.655635e+001
      vertex  1.500000e+002  2.450564e+002  1.455635e+001
      vertex  1.500000e+002  2.450564e+002  3.655635e+001
    endloop
  endfacet
  facet normal  1.000000e+000  0.000000e+000  0.000000e+000
    outer loop
      vertex  1.500000e+002 -2.450564e+002  3.655635e+001
      vertex  1.500000e+002  2.450564e+002  3.655635e+001
      vertex  1.500000e+002  2.075000e+002  5.111270e+001
    endloop
  endfacet
  facet normal  1.000000e+000  0.000000e+000  0.000000e+000
    outer loop
      vertex  1.500000e+002 -2.450564e+002  3.655635e+001
      vertex  1.500000e+002  2.075000e+002  5.111270e+001
      vertex  1.500000e+002  0.000000e+000  5.111270e+001
    endloop
  endfacet
  facet normal  1.000000e+000  0.000000e+000  0.000000e+000
    outer loop
      vertex  1.500000e+002 -2.450564e+002  3.655635e+001
      vertex  1.500000e+002  0.000000e+000  5.111270e+001
      vertex  1.500000e+002 -2.075000e+002  5.111270e+001
    endloop
  endfacet
  facet normal  1.000000e+000  0.000000e+000  -0.000000e+000
    outer loop
      vertex  1.500000e+002 -2.450564e+002  3.655635e+001
      vertex  1.500000e+002 -2.075000e+002  5.111270e+001
      vertex  1.500000e+002 -2.075000e+002  5.211270e+001
    endloop
  endfacet
  facet normal  1.000000e+000  0.000000e+000  0.000000e+000
    outer loop
      vertex  1.500000e+002 -2.450564e+002  3.655635e+001
      vertex  1.500000e+002 -2.075000e+002  5.211270e+001
      vertex  1.500000e+002 -2.295000e+002  5.211270e+001
    endloop
  endfacet
  facet normal  1.000000e+000  -0.000000e+000  0.000000e+000
    outer loop
      vertex  1.500000e+002  2.450564e+002  1.455635e+001
      vertex  1.500000e+002 -2.450564e+002  1.455635e+001
      vertex  1.500000e+002 -2.075000e+002  0.000000e+000
    endloop
  endfacet
  facet normal  9.999999e-001  0.000000e+000  0.000000e+000
    outer loop
      vertex  1.500000e+002  2.450564e+002  1.455635e+001
      vertex  1.500000e+002 -2.075000e+002  0.000000e+000
      vertex  1.500000e+002  0.000000e+000  0.000000e+000
    endloop
  endfacet
  facet normal  9.999999e-001  0.000000e+000  0.000000e+000
    outer loop
      vertex  1.500000e+002  2.450564e+002  1.455635e+001
      vertex  1.500000e+002  0.000000e+000  0.000000e+000
      vertex  1.500000e+002  2.075000e+002  0.000000e+000
    endloop
  endfacet
  facet normal  1.000000e+000  -0.000000e+000  0.000000e+000
    outer loop
      vertex  1.500000e+002  2.450564e+002  1.455635e+001
      vertex  1.500000e+002  2.075000e+002  0.000000e+000
      vertex  1.500000e+002  2.295000e+002 -1.000000e+000
    endloop
  endfacet
  facet normal  1.000000e+000  0.000000e+000  0.000000e+000
    outer loop
      vertex  1.500000e+002 -2.295000e+002 -1.000000e+000
      vertex  1.500000e+002 -2.075000e+002 -1.000000e+000
      vertex  1.500000e+002 -2.450564e+002  1.455635e+001
    endloop
  endfacet
  facet normal  9.999999e-001  0.000000e+000  0.000000e+000
    outer loop
      vertex  1.500000e+002 -2.450564e+002  1.455635e+001
      vertex  1.500000e+002 -2.075000e+002 -1.000000e+000
      vertex  1.500000e+002 -2.075000e+002  0.000000e+000
    endloop
  endfacet
  facet normal  9.999999e-001  0.000000e+000  0.000000e+000
    outer loop
      vertex  1.500000e+002  2.075000e+002  5.111270e+001
      vertex  1.500000e+002  2.450564e+002  3.655635e+001
      vertex  1.500000e+002  2.075000e+002  5.211270e+001
    endloop
  endfacet
  facet normal  1.000000e+000  -0.000000e+000  0.000000e+000
    outer loop
      vertex  1.500000e+002  2.075000e+002  5.211270e+001
      vertex  1.500000e+002  2.450564e+002  3.655635e+001
      vertex  1.500000e+002  2.295000e+002  5.211270e+001
    endloop
  endfacet
  facet normal -1.000000e+000  0.000000e+000  0.000000e+000
    outer loop
      vertex -1.500000e+002  2.075000e+002 -1.000000e+000
      vertex -1.500000e+002  2.075000e+002  0.000000e+000
      vertex -1.500000e+002  2.295000e+002 -1.000000e+000
    endloop
  endfacet
  facet normal -1.000000e+000  0.000000e+000  -0.000000e+000
    outer loop
      vertex -1.500000e+002 -2.450564e+002  3.655635e+001
      vertex -1.500000e+002 -2.295000e+002  5.211270e+001
      vertex -1.500000e+002 -2.075000e+002  5.211270e+001
    endloop
  endfacet
  facet normal -1.000000e+000  0.000000e+000  -0.000000e+000
    outer loop
      vertex -1.500000e+002 -2.450564e+002  3.655635e+001
      vertex -1.500000e+002 -2.075000e+002  5.211270e+001
      vertex -1.500000e+002 -2.075000e+002  5.111270e+001
    endloop
  endfacet
  facet normal -1.000000e+000  0.000000e+000  -0.000000e+000
    outer loop
      vertex -1.500000e+002 -2.450564e+002  3.655635e+001
      vertex -1.500000e+002 -2.075000e+002  5.111270e+001
      vertex -1.500000e+002  0.000000e+000  5.111270e+001
    endloop
  endfacet
  facet normal -1.000000e+000  0.000000e+000  -0.000000e+000
    outer loop
      vertex -1.500000e+002 -2.450564e+002  3.655635e+001
      vertex -1.500000e+002  0.000000e+000  5.111270e+001
      vertex -1.500000e+002  2.075000e+002  5.111270e+001
    endloop
  endfacet
  facet normal -1.000000e+000  0.000000e+000  -0.000000e+000
    outer loop
      vertex -1.500000e+002 -2.450564e+002  3.655635e+001
      vertex -1.500000e+002  2.075000e+002  5.111270e+001
      vertex -1.500000e+002  2.450564e+002  3.655635e+001
    endloop
  endfacet
  facet normal -1.000000e+000  -0.000000e+000  -0.000000e+000
    outer loop
      vertex -1.500000e+002 -2.450564e+002  3.655635e+001
      vertex -1.500000e+002  2.450564e+002  3.655635e+001
      vertex -1.500000e+002  2.450564e+002  1.455635e+001
    endloop
  endfacet
  facet normal -1.000000e+000  0.000000e+000  0.000000e+000
    outer loop
      vertex -1.500000e+002 -2.450564e+002  3.655635e+001
      vertex -1.500000e+002  2.450564e+002  1.455635e+001
      vertex -1.500000e+002 -2.450564e+002  1.455635e+001
    endloop
  endfacet
  facet normal -1.000000e+000  0.000000e+000  0.000000e+000
    outer loop
      vertex -1.500000e+002  2.450564e+002  1.455635e+001
      vertex -1.500000e+002  2.295000e+002 -1.000000e+000
      vertex -1.500000e+002  2.075000e+002  0.000000e+000
    endloop
  endfacet
  facet normal -9.999999e-001  0.000000e+000  0.000000e+000
    outer loop
      vertex -1.500000e+002  2.450564e+002  1.455635e+001
      vertex -1.500000e+002  2.075000e+002  0.000000e+000
      vertex -1.500000e+002  0.000000e+000  0.000000e+000
    endloop
  endfacet
  facet normal -9.999999e-001  0.000000e+000  0.000000e+000
    outer loop
      vertex -1.500000e+002  2.450564e+002  1.455635e+001
      vertex -1.500000e+002  0.000000e+000  0.000000e+000
      vertex -1.500000e+002 -2.075000e+002  0.000000e+000
    endloop
  endfacet
  facet normal -9.999999e-001  0.000000e+000  0.000000e+000
    outer loop
      vertex -1.500000e+002  2.450564e+002  1.455635e+001
      vertex -1.500000e+002 -2.075000e+002  0.000000e+000
      vertex -1.500000e+002 -2.450564e+002  1.455635e+001
    endloop
  endfacet
  facet normal -1.000000e+000  0.000000e+000  0.000000e+000
    outer loop
      vertex -1.500000e+002 -2.295000e+002 -1.000000e+000
      vertex -1.500000e+002 -2.450564e+002  1.455635e+001
      vertex -1.500000e+002 -2.075000e+002 -1.000000e+000
    endloop
  endfacet
  facet normal -1.000000e+000  0.000000e+000  0.000000e+000
    outer loop
      vertex -1.500000e+002 -2.075000e+002 -1.000000e+000
      vertex -1.500000e+002 -2.450564e+002  1.455635e+001
      vertex -1.500000e+002 -2.075000e+002  0.000000e+000
    endloop
  endfacet
  facet normal -1.000000e+000  0.000000e+000  0.000000e+000
    outer loop
      vertex -1.500000e+002  2.075000e+002  5.111270e+001
      vertex -1.500000e+002  2.075000e+002  5.211270e+001
      vertex -1.500000e+002  2.450564e+002  3.655635e+001
    endloop
  endfacet
  facet normal -1.000000e+000  0.000000e+000  0.000000e+000
    outer loop
      vertex -1.500000e+002  2.450564e+002  3.655635e+001
      vertex -1.500000e+002  2.075000e+002  5.211270e+001
      vertex -1.500000e+002  2.295000e+002  5.211270e+001
    endloop
  endfacet
  facet normal  0.000000e+000  0.000000e+000 -1.000000e+000
    outer loop
      vertex  1.500000e+002 -2.075000e+002  0.000000e+000
      vertex -1.500000e+002 -2.075000e+002  0.000000e+000
      vertex  1.500000e+002  0.000000e+000  0.000000e+000
    endloop
  endfacet
  facet normal  -0.000000e+000  0.000000e+000 -1.000000e+000
    outer loop
      vertex  1.500000e+002  0.000000e+000  0.000000e+000
      vertex -1.500000e+002 -2.075000e+002  0.000000e+000
      vertex -1.500000e+002  0.000000e+000  0.000000e+000
    endloop
  endfacet
  facet normal  0.000000e+000  1.000000e+000  0.000000e+000
    outer loop
      vertex -1.500000e+002 -2.075000e+002  0.000000e+000
      vertex  1.500000e+002 -2.075000e+002  0.000000e+000
      vertex -1.500000e+002 -2.075000e+002 -1.000000e+000
    endloop
  endfacet
  facet normal  0.000000e+000  1.000000e+000  0.000000e+000
    outer loop
      vertex -1.500000e+002 -2.075000e+002 -1.000000e+000
      vertex  1.500000e+002 -2.075000e+002  0.000000e+000
      vertex  1.500000e+002 -2.075000e+002 -1.000000e+000
    endloop
  endfacet
  facet normal  0.000000e+000  0.000000e+000 -1.000000e+000
    outer loop
      vertex  1.500000e+002 -2.295000e+002 -1.000000e+000
      vertex -1.500000e+002 -2.295000e+002 -1.000000e+000
      vertex  1.500000e+002 -2.075000e+002 -1.000000e+000
    endloop
  endfacet
  facet normal  -0.000000e+000  0.000000e+000 -1.000000e+000
    outer loop
      vertex  1.500000e+002 -2.075000e+002 -1.000000e+000
      vertex -1.500000e+002 -2.295000e+002 -1.000000e+000
      vertex -1.500000e+002 -2.075000e+002 -1.000000e+000
    endloop
  endfacet
  facet normal  -0.000000e+000 -7.071067e-001 -7.071068e-001
    outer loop
      vertex -1.500000e+002 -2.295000e+002 -1.000000e+000
      vertex  1.500000e+002 -2.295000e+002 -1.000000e+000
      vertex -1.500000e+002 -2.450564e+002  1.455635e+001
    endloop
  endfacet
  facet normal  0.000000e+000 -7.071067e-001 -7.071068e-001
    outer loop
      vertex -1.500000e+002 -2.450564e+002  1.455635e+001
      vertex  1.500000e+002 -2.295000e+002 -1.000000e+000
      vertex  1.500000e+002 -2.450564e+002  1.455635e+001
    endloop
  endfacet
  facet normal  0.000000e+000 -1.000000e+000  0.000000e+000
    outer loop
      vertex -1.500000e+002 -2.450564e+002  1.455635e+001
      vertex  1.500000e+002 -2.450564e+002  1.455635e+001
      vertex -1.500000e+002 -2.450564e+002  3.655635e+001
    endloop
  endfacet
  facet normal  0.000000e+000 -1.000000e+000  0.000000e+000
    outer loop
      vertex -1.500000e+002 -2.450564e+002  3.655635e+001
      vertex  1.500000e+002 -2.450564e+002  1.455635e+001
      vertex  1.500000e+002 -2.450564e+002  3.655635e+001
    endloop
  endfacet
  facet normal  0.000000e+000 -7.071067e-001  7.071069e-001
    outer loop
      vertex -1.500000e+002 -2.450564e+002  3.655635e+001
      vertex  1.500000e+002 -2.450564e+002  3.655635e+001
      vertex -1.500000e+002 -2.295000e+002  5.211270e+001
    endloop
  endfacet
  facet normal  0.000000e+000 -7.071067e-001  7.071069e-001
    outer loop
      vertex -1.500000e+002 -2.295000e+002  5.211270e+001
      vertex  1.500000e+002 -2.450564e+002  3.655635e+001
      vertex  1.500000e+002 -2.295000e+002  5.211270e+001
    endloop
  endfacet
  facet normal  -0.000000e+000  0.000000e+000  1.000000e+000
    outer loop
      vertex  1.500000e+002 -2.075000e+002  5.211270e+001
      vertex -1.500000e+002 -2.075000e+002  5.211270e+001
      vertex  1.500000e+002 -2.295000e+002  5.211270e+001
    endloop
  endfacet
  facet normal  0.000000e+000  0.000000e+000  1.000000e+000
    outer loop
      vertex  1.500000e+002 -2.295000e+002  5.211270e+001
      vertex -1.500000e+002 -2.075000e+002  5.211270e+001
      vertex -1.500000e+002 -2.295000e+002  5.211270e+001
    endloop
  endfacet
  facet normal  0.000000e+000  1.000000e+000  0.000000e+000
    outer loop
      vertex -1.500000e+002 -2.075000e+002  5.211270e+001
      vertex  1.500000e+002 -2.075000e+002  5.211270e+001
      vertex -1.500000e+002 -2.075000e+002  5.111270e+001
    endloop
  endfacet
  facet normal  0.000000e+000  1.000000e+000  0.000000e+000
    outer loop
      vertex -1.500000e+002 -2.075000e+002  5.111270e+001
      vertex  1.500000e+002 -2.075000e+002  5.211270e+001
      vertex  1.500000e+002 -2.075000e+002  5.111270e+001
    endloop
  endfacet
  facet normal  -0.000000e+000  0.000000e+000  1.000000e+000
    outer loop
      vertex  1.500000e+002  0.000000e+000  5.111270e+001
      vertex -1.500000e+002  0.000000e+000  5.111270e+001
      vertex  1.500000e+002 -2.075000e+002  5.111270e+001
    endloop
  endfacet
  facet normal  0.000000e+000  0.000000e+000  1.000000e+000
    outer loop
      vertex  1.500000e+002 -2.075000e+002  5.111270e+001
      vertex -1.500000e+002  0.000000e+000  5.111270e+001
      vertex -1.500000e+002 -2.075000e+002  5.111270e+001
    endloop
  endfacet
  facet normal  -0.000000e+000  0.000000e+000  1.000000e+000
    outer loop
      vertex  1.500000e+002  2.075000e+002  5.111270e+001
      vertex -1.500000e+002  2.075000e+002  5.111270e+001
      vertex  1.500000e+002  0.000000e+000  5.111270e+001
    endloop
  endfacet
  facet normal  0.000000e+000  0.000000e+000  1.000000e+000
    outer loop
      vertex  1.500000e+002  0.000000e+000  5.111270e+001
      vertex -1.500000e+002  2.075000e+002  5.111270e+001
      vertex -1.500000e+002  0.000000e+000  5.111270e+001
    endloop
  endfacet
  facet normal  0.000000e+000 -1.000000e+000  0.000000e+000
    outer loop
      vertex -1.500000e+002  2.075000e+002  5.211270e+001
      vertex -1.500000e+002  2.075000e+002  5.111270e+001
      vertex  1.500000e+002  2.075000e+002  5.211270e+001
    endloop
  endfacet
  facet normal  0.000000e+000 -1.000000e+000  -0.000000e+000
    outer loop
      vertex  1.500000e+002  2.075000e+002  5.211270e+001
      vertex -1.500000e+002  2.075000e+002  5.111270e+001
      vertex  1.500000e+002  2.075000e+002  5.111270e+001
    endloop
  endfacet
  facet normal  -0.000000e+000  0.000000e+000  1.000000e+000
    outer loop
      vertex  1.500000e+002  2.295000e+002  5.211270e+001
      vertex -1.500000e+002  2.295000e+002  5.211270e+001
      vertex  1.500000e+002  2.075000e+002  5.211270e+001
    endloop
  endfacet
  facet normal  0.000000e+000  0.000000e+000  1.000000e+000
    outer loop
      vertex  1.500000e+002  2.075000e+002  5.211270e+001
      vertex -1.500000e+002  2.295000e+002  5.211270e+001
      vertex -1.500000e+002  2.075000e+002  5.211270e+001
    endloop
  endfacet
  facet normal  0.000000e+000  7.071067e-001  7.071069e-001
    outer loop
      vertex -1.500000e+002  2.450564e+002  3.655635e+001
      vertex -1.500000e+002  2.295000e+002  5.211270e+001
      vertex  1.500000e+002  2.450564e+002  3.655635e+001
    endloop
  endfacet
  facet normal  0.000000e+000  7.071067e-001  7.071069e-001
    outer loop
      vertex  1.500000e+002  2.450564e+002  3.655635e+001
      vertex -1.500000e+002  2.295000e+002  5.211270e+001
      vertex  1.500000e+002  2.295000e+002  5.211270e+001
    endloop
  endfacet
  facet normal  0.000000e+000  1.000000e+000  0.000000e+000
    outer loop
      vertex -1.500000e+002  2.450564e+002  1.455635e+001
      vertex -1.500000e+002  2.450564e+002  3.655635e+001
      vertex  1.500000e+002  2.450564e+002  1.455635e+001
    endloop
  endfacet
  facet normal  0.000000e+000  1.000000e+000  -0.000000e+000
    outer loop
      vertex  1.500000e+002  2.450564e+002  1.455635e+001
      vertex -1.500000e+002  2.450564e+002  3.655635e+001
      vertex  1.500000e+002  2.450564e+002  3.655635e+001
    endloop
  endfacet
  facet normal  0.000000e+000  7.071067e-001 -7.071068e-001
    outer loop
      vertex -1.500000e+002  2.295000e+002 -1.000000e+000
      vertex -1.500000e+002  2.450564e+002  1.455635e+001
      vertex  1.500000e+002  2.295000e+002 -1.000000e+000
    endloop
  endfacet
  facet normal  0.000000e+000  7.071067e-001 -7.071068e-001
    outer loop
      vertex  1.500000e+002  2.295000e+002 -1.000000e+000
      vertex -1.500000e+002  2.450564e+002  1.455635e+001
      vertex  1.500000e+002  2.450564e+002  1.455635e+001
    endloop
  endfacet
  facet normal  0.000000e+000  0.000000e+000 -1.000000e+000
    outer loop
      vertex  1.500000e+002  2.075000e+002 -1.000000e+000
      vertex -1.500000e+002  2.075000e+002 -1.000000e+000
      vertex  1.500000e+002  2.295000e+002 -1.000000e+000
    endloop
  endfacet
  facet normal  -0.000000e+000  0.000000e+000 -1.000000e+000
    outer loop
      vertex  1.500000e+002  2.295000e+002 -1.000000e+000
      vertex -1.500000e+002  2.075000e+002 -1.000000e+000
      vertex -1.500000e+002  2.295000e+002 -1.000000e+000
    endloop
  endfacet
  facet normal  0.000000e+000 -1.000000e+000  0.000000e+000
    outer loop
      vertex -1.500000e+002  2.075000e+002  0.000000e+000
      vertex -1.500000e+002  2.075000e+002 -1.000000e+000
      vertex  1.500000e+002  2.075000e+002  0.000000e+000
    endloop
  endfacet
  facet normal  0.000000e+000 -1.000000e+000  -0.000000e+000
    outer loop
      vertex  1.500000e+002  2.075000e+002  0.000000e+000
      vertex -1.500000e+002  2.075000e+002 -1.000000e+000
      vertex  1.500000e+002  2.075000e+002 -1.000000e+000
    endloop
  endfacet
  facet normal  0.000000e+000  0.000000e+000 -1.000000e+000
    outer loop
      vertex  1.500000e+002  0.000000e+000  0.000000e+000
      vertex -1.500000e+002  0.000000e+000  0.000000e+000
      vertex  1.500000e+002  2.075000e+002  0.000000e+000
    endloop
  endfacet
  facet normal  -0.000000e+000  0.000000e+000 -1.000000e+000
    outer loop
      vertex  1.500000e+002  2.075000e+002  0.000000e+000
      vertex -1.500000e+002  0.000000e+000  0.000000e+000
      vertex -1.500000e+002  2.075000e+002  0.000000e+000
    endloop
  endfacet
endsolid CATIA STL
